<?xml version="1.0" encoding="UTF-8" standalone="no"?>
<!-- Created with Inkscape (http://www.inkscape.org/) -->

<svg
   xmlns:dc="http://purl.org/dc/elements/1.1/"
   xmlns:cc="http://creativecommons.org/ns#"
   xmlns:rdf="http://www.w3.org/1999/02/22-rdf-syntax-ns#"
   xmlns:svg="http://www.w3.org/2000/svg"
   xmlns="http://www.w3.org/2000/svg"
   xmlns:sodipodi="http://sodipodi.sourceforge.net/DTD/sodipodi-0.dtd"
   xmlns:inkscape="http://www.inkscape.org/namespaces/inkscape"
   width="64px"
   height="64px"
   id="svg2985"
   version="1.1"
   inkscape:version="0.48.3.1 r9886"
   sodipodi:docname="New document 2">
  <defs
     id="defs2987" />
  <sodipodi:namedview
     id="base"
     pagecolor="#ffffff"
     bordercolor="#666666"
     borderopacity="1.0"
     inkscape:pageopacity="0.0"
     inkscape:pageshadow="2"
     inkscape:zoom="5.5"
     inkscape:cx="32"
     inkscape:cy="32"
     inkscape:current-layer="layer1"
     showgrid="true"
     inkscape:document-units="px"
     inkscape:grid-bbox="true"
     inkscape:window-width="718"
     inkscape:window-height="615"
     inkscape:window-x="67"
     inkscape:window-y="24"
     inkscape:window-maximized="0" />
  <metadata
     id="metadata2990">
    <rdf:RDF>
      <cc:Work
         rdf:about="">
        <dc:format>image/svg+xml</dc:format>
        <dc:type
           rdf:resource="http://purl.org/dc/dcmitype/StillImage" />
        <dc:title></dc:title>
      </cc:Work>
    </rdf:RDF>
  </metadata>
  <g
     id="layer1"
     inkscape:label="Layer 1"
     inkscape:groupmode="layer">
    <path
       style="fill:#0000ff;stroke:#000000;stroke-width:1px;stroke-linecap:butt;stroke-linejoin:miter;stroke-opacity:1"
       d="M 26.727273,3.0909091 38,59.636364 23.636364,59.818182 14.727273,18.363636 z"
       id="path3001"
       inkscape:connector-curvature="0" />
    <path
       style="fill:#000000;fill-opacity:1;fill-rule:nonzero;stroke:none"
       id="path3003"
       d="m 37.358058,12.117708 c 0.688029,0.04265 1.376118,0.103212 2.060649,0.186551 1.021226,0.156206 2.047642,0.163163 3.076103,0.103381 1.955979,-0.254166 3.920268,-0.418598 5.888014,-0.546557 1.849485,-0.17513 3.733329,-0.234545 5.508032,-0.829724 1.349856,-0.732927 -1.012203,0.59597 -1.534112,0.864625 -0.09373,0.04825 0.163675,-0.133253 0.239894,-0.206079 0.224941,-0.214926 0.404176,-0.467192 0.585001,-0.718413 0.321069,-0.484296 0.655959,-0.958672 0.968705,-1.4484559 C 54.512127,9.021225 54.744323,8.4566153 54.944639,7.8761585 55.173834,7.2843687 55.266492,6.6731697 55.256044,6.0427326 55.185449,5.4007888 54.485313,5.1529244 53.98201,4.8899484 52.103922,3.9736267 50.152451,3.2309511 48.172726,2.5672319 46.959451,2.1986757 47.536843,2.3760419 46.440249,2.0361108 c 0,0 1.998724,-1.35206789 1.998724,-1.35206789 l 0,0 c 1.014716,0.39685219 0.47504,0.19310563 1.620831,0.60644109 2.007812,0.7248376 4.014441,1.45479 6.005556,2.2235555 0.62688,0.2756243 1.463596,0.5414026 1.527517,1.3355438 4.57e-4,0.6546364 -0.08138,1.2942702 -0.291336,1.9181926 -0.184336,0.5931179 -0.403623,1.18325 -0.757836,1.6984343 -0.303467,0.5061075 -0.658351,0.9706892 -0.974146,1.4683401 -0.96234,1.3841587 -1.794686,1.9728497 -3.671098,2.6331677 -1.743012,0.433388 -3.554406,0.440843 -5.33261,0.632168 -2.036068,0.1409 -4.059408,0.377069 -6.077187,0.684024 -1.051607,0.06678 -2.096315,0.03896 -3.1415,-0.10745 -0.719862,-0.06368 -1.444926,-0.129784 -2.167597,-0.07599 0,0 2.178491,-1.582766 2.178491,-1.582766 z"
       inkscape:connector-curvature="0" />
    <path
       style="fill:#000000;fill-opacity:1;fill-rule:nonzero;stroke:none"
       id="path3005"
       d="m 38.476287,30.976151 c 1.417867,-0.971027 2.922946,-1.831833 4.517366,-2.475033 1.134665,-0.451779 2.360159,-0.597537 3.566674,-0.72091 1.607518,-0.101775 3.217711,-0.171139 4.827416,-0.233558 1.731191,-0.06502 3.463931,-0.06107 5.196038,-0.05837 1.231173,0.06523 2.491767,-0.190145 3.708832,0.05191 0.701828,0.261798 1.32178,0.688824 1.863074,1.2005 0.378351,0.427178 0.565735,0.941495 0.635682,1.498778 0.0233,0.48383 0.04978,0.970345 0.01549,1.454089 -0.06843,0.313155 -0.246187,0.636722 -0.532113,0.806561 -2.388257,1.418617 -1.547583,1.194296 -2.687773,1.466855 0,0 2.080724,-1.615314 2.080724,-1.615314 l 0,0 c 0.942903,-0.404584 0.270006,-0.126323 -1.84359,1.115557 -0.06643,0.03903 0.1364,-0.07242 0.199836,-0.116145 0.112981,-0.07787 0.246943,-0.196041 0.326239,-0.310345 0.03711,-0.05349 0.05933,-0.115907 0.089,-0.173861 0.07302,-0.462537 0.03629,-0.938411 0.01868,-1.404447 -0.05211,-0.499548 -0.167822,-0.974365 -0.51221,-1.360767 -0.499177,-0.484387 -1.094901,-0.876854 -1.760792,-1.089869 -1.152876,-0.208643 -2.344456,-0.07164 -3.508823,-0.136579 -1.73825,0.01295 -3.476665,0.02732 -5.214221,0.0819 -1.626716,0.06025 -3.252735,0.150309 -4.874612,0.290391 -1.211925,0.146105 -2.434663,0.325821 -3.565677,0.808846 -0.165811,0.07114 -0.333525,0.137999 -0.497432,0.213424 -0.168056,0.07733 -0.333647,0.16003 -0.49813,0.244698 -0.153345,0.07893 -0.60362,0.333815 -0.455174,0.246015 0.605402,-0.358071 1.217527,-0.704651 1.82629,-1.056977 -0.08749,0.05277 -0.177108,0.102151 -0.262455,0.158316 -0.05703,0.03753 -0.109463,0.08164 -0.164195,0.122454 0,0 -2.494142,0.991884 -2.494142,0.991884 z"
       inkscape:connector-curvature="0" />
    <path
       style="fill:#000000;fill-opacity:1;fill-rule:nonzero;stroke:none"
       id="path3007"
       d="m 46.485484,39.759143 c 0.613706,0.110697 1.237818,0.127339 1.840606,0.297021 0.445336,0.199201 0.893814,0.378698 1.300635,0.649905 0.761718,0.687523 1.536682,1.346608 2.387591,1.921966 0.539364,0.320944 1.078779,0.637814 1.616712,0.960353 0.580977,0.368112 1.022226,0.885504 1.40954,1.444684 0.405177,0.619811 0.752035,1.270233 1.047484,1.948474 0.248941,0.672283 0.441832,1.363745 0.641101,2.052034 0.08411,0.500656 0.418771,1.124992 0.301547,1.641697 -0.01945,0.08573 -0.06862,0.161863 -0.102936,0.242795 -0.85828,0.876047 -0.218207,0.259174 -2.696996,1.630217 -0.252734,0.13979 -0.624907,0.235162 -0.909871,0.266448 -0.131528,0.01444 -0.264527,0.0076 -0.39679,0.01135 -1.234754,0.0043 -2.459477,-0.172478 -3.685984,-0.293905 -0.651641,-0.06667 -1.305385,-0.108167 -1.960238,-0.120833 0,0 2.133791,-1.539074 2.133791,-1.539074 l 0,0 c 0.629387,0.03134 1.253641,0.109505 1.876126,0.207636 1.226066,0.172825 2.46116,0.344842 3.701443,0.217567 0.354099,-0.05294 0.671713,-0.118441 1.004361,-0.253476 0.09418,-0.03823 0.364611,-0.178366 0.278146,-0.12494 -1.076818,0.66536 -2.746983,1.611795 -1.760396,1.051617 0.0531,-0.04569 0.122587,-0.07742 0.159295,-0.137081 0.230496,-0.374647 -0.134364,-1.174138 -0.202553,-1.561895 -0.217916,-0.673011 -0.385193,-1.362693 -0.642251,-2.02238 -0.267552,-0.669847 -0.607807,-1.305345 -1.011725,-1.903527 -0.37949,-0.526347 -0.809215,-1.013031 -1.380808,-1.338083 -0.528002,-0.329261 -1.069217,-0.636069 -1.565098,-1.014273 -0.819903,-0.609582 -1.570253,-1.310039 -2.422635,-1.872659 -0.418848,-0.211887 -0.853917,-0.391738 -1.283528,-0.580127 -0.5986,-0.163344 -1.221796,-0.214593 -1.8411,-0.208884 0,0 2.164531,-1.572623 2.164531,-1.572623 z"
       inkscape:connector-curvature="0" />
  </g>
</svg>
